<mxfile host="app.diagrams.net" agent="Mozilla/5.0 (Windows NT 10.0; Win64; x64) AppleWebKit/537.36 (KHTML, like Gecko) Chrome/131.0.0.0 Safari/537.36" version="25.0.1">
  <diagram name="Pagina-1" id="JFuyCVOlOohOuy0BxLqc">
    <mxGraphModel dx="2868" dy="2729" grid="1" gridSize="10" guides="1" tooltips="1" connect="1" arrows="1" fold="1" page="1" pageScale="1" pageWidth="827" pageHeight="1169" math="0" shadow="0">
      <root>
        <mxCell id="0" />
        <mxCell id="1" parent="0" />
        <mxCell id="RDFtEy2n6izHxV50Ww-2-57" value="" style="group" vertex="1" connectable="0" parent="1">
          <mxGeometry x="40" y="-1160" width="1560" height="466" as="geometry" />
        </mxCell>
        <mxCell id="RDFtEy2n6izHxV50Ww-2-53" style="edgeStyle=orthogonalEdgeStyle;rounded=0;orthogonalLoop=1;jettySize=auto;html=1;exitX=0.5;exitY=1;exitDx=0;exitDy=0;" edge="1" parent="RDFtEy2n6izHxV50Ww-2-57" source="RDFtEy2n6izHxV50Ww-2-2" target="RDFtEy2n6izHxV50Ww-2-39">
          <mxGeometry relative="1" as="geometry" />
        </mxCell>
        <mxCell id="RDFtEy2n6izHxV50Ww-2-54" style="edgeStyle=orthogonalEdgeStyle;rounded=0;orthogonalLoop=1;jettySize=auto;html=1;entryX=0.5;entryY=0;entryDx=0;entryDy=0;" edge="1" parent="RDFtEy2n6izHxV50Ww-2-57" source="RDFtEy2n6izHxV50Ww-2-2" target="RDFtEy2n6izHxV50Ww-2-49">
          <mxGeometry relative="1" as="geometry" />
        </mxCell>
        <mxCell id="RDFtEy2n6izHxV50Ww-2-55" style="edgeStyle=orthogonalEdgeStyle;rounded=0;orthogonalLoop=1;jettySize=auto;html=1;exitX=0.5;exitY=1;exitDx=0;exitDy=0;" edge="1" parent="RDFtEy2n6izHxV50Ww-2-57" source="RDFtEy2n6izHxV50Ww-2-2" target="RDFtEy2n6izHxV50Ww-2-3">
          <mxGeometry relative="1" as="geometry" />
        </mxCell>
        <mxCell id="RDFtEy2n6izHxV50Ww-2-56" style="edgeStyle=orthogonalEdgeStyle;rounded=0;orthogonalLoop=1;jettySize=auto;html=1;exitX=0.5;exitY=1;exitDx=0;exitDy=0;" edge="1" parent="RDFtEy2n6izHxV50Ww-2-57" source="RDFtEy2n6izHxV50Ww-2-2" target="RDFtEy2n6izHxV50Ww-2-46">
          <mxGeometry relative="1" as="geometry" />
        </mxCell>
        <mxCell id="RDFtEy2n6izHxV50Ww-2-2" value="&lt;font size=&quot;3&quot;&gt;&lt;b&gt;Project&lt;/b&gt;&lt;/font&gt;" style="rounded=0;whiteSpace=wrap;html=1;" vertex="1" parent="RDFtEy2n6izHxV50Ww-2-57">
          <mxGeometry x="547.5" width="120" height="46" as="geometry" />
        </mxCell>
        <mxCell id="RDFtEy2n6izHxV50Ww-2-38" value="" style="group" vertex="1" connectable="0" parent="RDFtEy2n6izHxV50Ww-2-57">
          <mxGeometry x="780" y="120" width="780" height="346" as="geometry" />
        </mxCell>
        <mxCell id="RDFtEy2n6izHxV50Ww-2-34" style="edgeStyle=orthogonalEdgeStyle;rounded=0;orthogonalLoop=1;jettySize=auto;html=1;exitX=0.5;exitY=1;exitDx=0;exitDy=0;" edge="1" parent="RDFtEy2n6izHxV50Ww-2-38" source="RDFtEy2n6izHxV50Ww-2-3" target="RDFtEy2n6izHxV50Ww-2-4">
          <mxGeometry relative="1" as="geometry" />
        </mxCell>
        <mxCell id="RDFtEy2n6izHxV50Ww-2-35" style="edgeStyle=orthogonalEdgeStyle;rounded=0;orthogonalLoop=1;jettySize=auto;html=1;exitX=0.5;exitY=1;exitDx=0;exitDy=0;" edge="1" parent="RDFtEy2n6izHxV50Ww-2-38" source="RDFtEy2n6izHxV50Ww-2-3" target="RDFtEy2n6izHxV50Ww-2-5">
          <mxGeometry relative="1" as="geometry" />
        </mxCell>
        <mxCell id="RDFtEy2n6izHxV50Ww-2-3" value="&lt;font size=&quot;3&quot;&gt;&lt;b&gt;Software&lt;/b&gt;&lt;/font&gt;" style="rounded=0;whiteSpace=wrap;html=1;" vertex="1" parent="RDFtEy2n6izHxV50Ww-2-38">
          <mxGeometry x="220" width="120" height="46" as="geometry" />
        </mxCell>
        <mxCell id="RDFtEy2n6izHxV50Ww-2-36" style="edgeStyle=orthogonalEdgeStyle;rounded=0;orthogonalLoop=1;jettySize=auto;html=1;exitX=0.5;exitY=1;exitDx=0;exitDy=0;" edge="1" parent="RDFtEy2n6izHxV50Ww-2-38" source="RDFtEy2n6izHxV50Ww-2-5" target="RDFtEy2n6izHxV50Ww-2-26">
          <mxGeometry relative="1" as="geometry" />
        </mxCell>
        <mxCell id="RDFtEy2n6izHxV50Ww-2-37" style="edgeStyle=orthogonalEdgeStyle;rounded=0;orthogonalLoop=1;jettySize=auto;html=1;exitX=0.5;exitY=1;exitDx=0;exitDy=0;" edge="1" parent="RDFtEy2n6izHxV50Ww-2-38" source="RDFtEy2n6izHxV50Ww-2-5" target="RDFtEy2n6izHxV50Ww-2-25">
          <mxGeometry relative="1" as="geometry" />
        </mxCell>
        <mxCell id="RDFtEy2n6izHxV50Ww-2-5" value="&lt;font size=&quot;3&quot;&gt;&lt;b&gt;Development&lt;/b&gt;&lt;/font&gt;" style="rounded=0;whiteSpace=wrap;html=1;" vertex="1" parent="RDFtEy2n6izHxV50Ww-2-38">
          <mxGeometry x="430" y="110" width="120" height="46" as="geometry" />
        </mxCell>
        <mxCell id="RDFtEy2n6izHxV50Ww-2-30" value="" style="group" vertex="1" connectable="0" parent="RDFtEy2n6izHxV50Ww-2-38">
          <mxGeometry x="560" y="230" width="220" height="116" as="geometry" />
        </mxCell>
        <mxCell id="RDFtEy2n6izHxV50Ww-2-25" value="&lt;font size=&quot;3&quot;&gt;&lt;b&gt;Coding&lt;/b&gt;&lt;/font&gt;" style="rounded=0;whiteSpace=wrap;html=1;" vertex="1" parent="RDFtEy2n6izHxV50Ww-2-30">
          <mxGeometry x="20" width="120" height="46" as="geometry" />
        </mxCell>
        <mxCell id="RDFtEy2n6izHxV50Ww-2-28" value="&lt;ul&gt;&lt;li style=&quot;text-align: left;&quot;&gt;&lt;font size=&quot;3&quot;&gt;Machine Learning&lt;/font&gt;&lt;/li&gt;&lt;li style=&quot;text-align: left;&quot;&gt;&lt;font size=&quot;3&quot;&gt;Data Elaboration&lt;/font&gt;&lt;/li&gt;&lt;li style=&quot;text-align: left;&quot;&gt;&lt;font size=&quot;3&quot;&gt;Vulnerability Assessment&lt;/font&gt;&lt;/li&gt;&lt;/ul&gt;" style="text;html=1;align=center;verticalAlign=middle;whiteSpace=wrap;rounded=0;container=0;" vertex="1" parent="RDFtEy2n6izHxV50Ww-2-30">
          <mxGeometry y="46" width="220" height="70" as="geometry" />
        </mxCell>
        <mxCell id="RDFtEy2n6izHxV50Ww-2-31" value="" style="group" vertex="1" connectable="0" parent="RDFtEy2n6izHxV50Ww-2-38">
          <mxGeometry x="250" y="230" width="190" height="100" as="geometry" />
        </mxCell>
        <mxCell id="RDFtEy2n6izHxV50Ww-2-26" value="&lt;font size=&quot;3&quot;&gt;&lt;b&gt;Data Gathering&lt;/b&gt;&lt;/font&gt;" style="rounded=0;whiteSpace=wrap;html=1;" vertex="1" parent="RDFtEy2n6izHxV50Ww-2-31">
          <mxGeometry x="40" width="120" height="46" as="geometry" />
        </mxCell>
        <mxCell id="RDFtEy2n6izHxV50Ww-2-29" value="&lt;ul&gt;&lt;li style=&quot;text-align: left;&quot;&gt;&lt;font size=&quot;3&quot;&gt;Data Validation&lt;br&gt;&lt;/font&gt;&lt;/li&gt;&lt;li style=&quot;text-align: left;&quot;&gt;&lt;font size=&quot;3&quot;&gt;Data Filtering&lt;/font&gt;&lt;/li&gt;&lt;/ul&gt;" style="text;html=1;align=center;verticalAlign=middle;whiteSpace=wrap;rounded=0;" vertex="1" parent="RDFtEy2n6izHxV50Ww-2-31">
          <mxGeometry y="46" width="190" height="54" as="geometry" />
        </mxCell>
        <mxCell id="RDFtEy2n6izHxV50Ww-2-32" value="" style="group" vertex="1" connectable="0" parent="RDFtEy2n6izHxV50Ww-2-38">
          <mxGeometry y="110" width="190" height="116" as="geometry" />
        </mxCell>
        <mxCell id="RDFtEy2n6izHxV50Ww-2-4" value="&lt;font size=&quot;3&quot;&gt;&lt;b&gt;Testing&lt;/b&gt;&lt;/font&gt;" style="rounded=0;whiteSpace=wrap;html=1;" vertex="1" parent="RDFtEy2n6izHxV50Ww-2-32">
          <mxGeometry x="20" width="120" height="46" as="geometry" />
        </mxCell>
        <mxCell id="RDFtEy2n6izHxV50Ww-2-23" value="&lt;ul&gt;&lt;li style=&quot;text-align: left;&quot;&gt;&lt;font size=&quot;3&quot;&gt;In House Testing&lt;br&gt;&lt;/font&gt;&lt;/li&gt;&lt;li style=&quot;text-align: left;&quot;&gt;&lt;font size=&quot;3&quot;&gt;Earth-Based Testing&lt;/font&gt;&lt;/li&gt;&lt;li style=&quot;text-align: left;&quot;&gt;&lt;font size=&quot;3&quot;&gt;On-Site Testing&lt;/font&gt;&lt;/li&gt;&lt;/ul&gt;" style="text;html=1;align=center;verticalAlign=middle;whiteSpace=wrap;rounded=0;" vertex="1" parent="RDFtEy2n6izHxV50Ww-2-32">
          <mxGeometry y="46" width="190" height="70" as="geometry" />
        </mxCell>
        <mxCell id="RDFtEy2n6izHxV50Ww-2-45" value="" style="group" vertex="1" connectable="0" parent="RDFtEy2n6izHxV50Ww-2-57">
          <mxGeometry y="120" width="240" height="90" as="geometry" />
        </mxCell>
        <mxCell id="RDFtEy2n6izHxV50Ww-2-39" value="&lt;font size=&quot;3&quot;&gt;&lt;b&gt;Project Managment&lt;/b&gt;&lt;/font&gt;" style="rounded=0;whiteSpace=wrap;html=1;" vertex="1" parent="RDFtEy2n6izHxV50Ww-2-45">
          <mxGeometry x="20" width="120" height="46" as="geometry" />
        </mxCell>
        <mxCell id="RDFtEy2n6izHxV50Ww-2-43" value="&lt;ul&gt;&lt;li style=&quot;text-align: left;&quot;&gt;&lt;font size=&quot;3&quot;&gt;Initial Planning&lt;/font&gt;&lt;/li&gt;&lt;li style=&quot;text-align: left;&quot;&gt;&lt;font size=&quot;3&quot;&gt;Stakeholders Management&lt;/font&gt;&lt;/li&gt;&lt;/ul&gt;" style="text;html=1;align=center;verticalAlign=middle;whiteSpace=wrap;rounded=0;" vertex="1" parent="RDFtEy2n6izHxV50Ww-2-45">
          <mxGeometry y="46" width="240" height="44" as="geometry" />
        </mxCell>
        <mxCell id="RDFtEy2n6izHxV50Ww-2-48" value="" style="group" vertex="1" connectable="0" parent="RDFtEy2n6izHxV50Ww-2-57">
          <mxGeometry x="260" y="120" width="190" height="100" as="geometry" />
        </mxCell>
        <mxCell id="RDFtEy2n6izHxV50Ww-2-46" value="&lt;font size=&quot;3&quot;&gt;&lt;b&gt;H.R&lt;/b&gt;&lt;/font&gt;" style="rounded=0;whiteSpace=wrap;html=1;" vertex="1" parent="RDFtEy2n6izHxV50Ww-2-48">
          <mxGeometry x="27.5" width="120" height="46" as="geometry" />
        </mxCell>
        <mxCell id="RDFtEy2n6izHxV50Ww-2-47" value="&lt;ul&gt;&lt;li style=&quot;text-align: left;&quot;&gt;&lt;font size=&quot;3&quot;&gt;Personell Hiring&lt;/font&gt;&lt;/li&gt;&lt;li style=&quot;text-align: left;&quot;&gt;&lt;font size=&quot;3&quot;&gt;Personell Training&lt;/font&gt;&lt;/li&gt;&lt;/ul&gt;" style="text;html=1;align=center;verticalAlign=middle;whiteSpace=wrap;rounded=0;" vertex="1" parent="RDFtEy2n6izHxV50Ww-2-48">
          <mxGeometry y="46" width="190" height="54" as="geometry" />
        </mxCell>
        <mxCell id="RDFtEy2n6izHxV50Ww-2-52" value="" style="group" vertex="1" connectable="0" parent="RDFtEy2n6izHxV50Ww-2-57">
          <mxGeometry x="530" y="120" width="210" height="170" as="geometry" />
        </mxCell>
        <mxCell id="RDFtEy2n6izHxV50Ww-2-49" value="&lt;font size=&quot;3&quot;&gt;&lt;b&gt;Hardware&lt;/b&gt;&lt;/font&gt;" style="rounded=0;whiteSpace=wrap;html=1;" vertex="1" parent="RDFtEy2n6izHxV50Ww-2-52">
          <mxGeometry x="17.5" width="120" height="46" as="geometry" />
        </mxCell>
        <mxCell id="RDFtEy2n6izHxV50Ww-2-51" value="&lt;ul&gt;&lt;li style=&quot;text-align: left;&quot;&gt;&lt;font size=&quot;3&quot;&gt;Security Assessment&lt;/font&gt;&lt;/li&gt;&lt;li style=&quot;text-align: left;&quot;&gt;&lt;font size=&quot;3&quot;&gt;Hardware Procurement&lt;/font&gt;&lt;/li&gt;&lt;li style=&quot;text-align: left;&quot;&gt;&lt;font size=&quot;3&quot;&gt;Hardware Deployment&lt;/font&gt;&lt;/li&gt;&lt;li style=&quot;text-align: left;&quot;&gt;&lt;font size=&quot;3&quot;&gt;Hardware Testing&lt;/font&gt;&lt;/li&gt;&lt;li style=&quot;text-align: left;&quot;&gt;&lt;font size=&quot;3&quot;&gt;Network Connection&lt;/font&gt;&lt;/li&gt;&lt;li style=&quot;text-align: left;&quot;&gt;&lt;font size=&quot;3&quot;&gt;Building Management&lt;/font&gt;&lt;/li&gt;&lt;/ul&gt;" style="text;html=1;align=center;verticalAlign=middle;whiteSpace=wrap;rounded=0;" vertex="1" parent="RDFtEy2n6izHxV50Ww-2-52">
          <mxGeometry y="46" width="210" height="124" as="geometry" />
        </mxCell>
      </root>
    </mxGraphModel>
  </diagram>
</mxfile>
